<?xml version="1.0" standalone="no"?>
<!DOCTYPE svg PUBLIC "-//W3C//DTD SVG 20010904//EN"
 "http://www.w3.org/TR/2001/REC-SVG-20010904/DTD/svg10.dtd">
<svg version="1.0" xmlns="http://www.w3.org/2000/svg"
 width="512.000000pt" height="512.000000pt" viewBox="0 0 512.000000 512.000000"
 preserveAspectRatio="xMidYMid meet">
<metadata>
Created by potrace 1.14, written by Peter Selinger 2001-2017
</metadata>
<g transform="translate(0.000000,512.000000) scale(0.100000,-0.100000)"
fill="#000000" stroke="none">
<path d="M335 4936 c-146 -46 -240 -165 -250 -316 -2 -30 -6 -235 -10 -455 -3
-220 -8 -573 -11 -785 -3 -212 -6 -540 -7 -730 l-2 -345 1382 -1 c1261 -1
1382 0 1386 15 2 9 5 108 6 221 3 258 8 568 17 1160 4 256 7 584 8 730 l1 265
-27 56 c-34 69 -87 125 -158 164 l-55 30 -1120 2 c-885 1 -1128 -1 -1160 -11z
m101 -832 c16 -24 18 -113 9 -669 -2 -132 -4 -268 -4 -302 -1 -51 -5 -67 -27
-92 -31 -37 -84 -42 -124 -11 l-25 19 2 468 c3 503 6 567 25 591 38 45 113 44
144 -4z"/>
<path d="M4521 4752 c-155 -76 -282 -276 -317 -497 -3 -22 -8 -43 -10 -47 -3
-4 -5 -39 -5 -79 -1 -71 -1 -72 -21 -52 -25 26 -47 90 -42 127 2 16 2 27 0 25
-31 -31 -115 -147 -141 -194 -34 -61 -101 -220 -110 -259 -2 -12 -11 -42 -19
-68 -8 -27 -18 -67 -21 -90 -4 -24 -11 -65 -16 -92 -8 -45 -3 -79 8 -48 8 21
95 122 158 182 38 36 51 45 38 25 -31 -45 -94 -175 -86 -174 8 0 220 286 296
399 24 36 68 99 98 141 31 42 63 93 74 115 16 34 19 36 26 18 23 -63 -40 -305
-115 -438 -43 -77 -193 -278 -271 -364 l-58 -64 39 16 c110 46 289 205 383
341 75 108 207 394 271 585 39 117 78 281 65 270 -12 -10 -57 -96 -68 -130 -2
-8 -10 5 -16 30 -7 25 -23 81 -37 125 -14 44 -31 112 -37 152 l-12 71 -54 -26z"/>
<path d="M4780 3931 c-74 -77 -142 -196 -185 -323 -27 -81 -76 -256 -78 -275
-1 -19 -4 -16 -33 27 -19 28 -24 47 -20 65 8 32 3 32 -56 -6 -91 -59 -161
-162 -203 -299 -18 -59 -75 -343 -70 -348 2 -2 25 29 52 68 68 102 127 174
159 195 l27 18 -23 -39 c-13 -22 -31 -50 -40 -64 -21 -31 -62 -122 -57 -127 2
-2 17 18 34 44 38 62 132 170 257 297 54 55 127 131 161 169 l63 69 -14 -65
c-37 -177 -142 -349 -371 -605 -79 -88 -107 -122 -98 -122 3 0 40 16 82 35
329 152 584 543 706 1084 10 42 -9 9 -37 -64 -36 -96 -42 -103 -43 -51 -1 53
-9 80 -76 254 -28 72 -55 132 -61 132 -5 0 -39 -31 -76 -69z"/>
<path d="M3712 3386 c-23 -25 -42 -50 -42 -56 0 -6 -9 -6 -26 1 -39 14 -58 4
-86 -49 -14 -26 -45 -83 -68 -127 -157 -295 -207 -390 -245 -460 -108 -198
-124 -235 -114 -259 6 -13 27 -31 46 -40 l35 -16 -28 -48 c-68 -118 -160 -215
-261 -274 -55 -33 -66 -36 -95 -27 -93 27 -320 42 -374 25 -11 -3 -35 -7 -55
-10 -67 -8 -184 -48 -271 -93 -587 -302 -723 -1062 -279 -1556 50 -56 170
-150 244 -191 59 -33 177 -82 222 -92 158 -36 363 -40 480 -9 33 8 67 17 76
19 50 13 180 75 244 117 272 177 440 475 450 795 5 180 -30 338 -108 489 l-42
80 50 52 50 53 49 -35 c27 -19 50 -34 51 -32 1 1 76 99 167 217 90 118 222
292 293 385 71 94 137 179 147 189 24 26 23 33 -9 62 -27 23 -27 25 -9 38 17
14 15 20 -49 125 -37 61 -72 111 -77 111 -13 0 -68 -39 -90 -63 -18 -20 -27
-19 -63 7 -19 14 -24 9 -100 -92 -44 -59 -82 -109 -85 -112 -4 -3 -35 -43 -70
-90 -36 -47 -70 -92 -77 -100 -6 -8 -82 -107 -168 -219 l-155 -204 45 -31 c25
-17 45 -35 45 -41 0 -5 -14 -25 -31 -43 l-30 -34 -42 42 c-31 31 -140 115
-174 135 -2 1 34 40 80 87 45 47 113 128 150 181 l68 96 32 -18 c18 -10 39
-17 47 -16 8 1 20 3 27 3 6 1 37 50 69 110 105 198 121 227 174 327 29 55 65
123 80 150 92 167 149 286 143 302 -3 10 -15 26 -27 36 -20 16 -20 18 -4 31
16 12 10 22 -68 112 -47 54 -89 100 -93 102 -4 1 -27 -18 -49 -42z m-1303
-1713 c-17 -60 -32 -115 -34 -123 -4 -20 -101 -366 -114 -407 -11 -39 -7 -138
8 -176 11 -28 11 -28 -67 -63 -42 -19 -86 -39 -97 -44 -105 -48 -179 -80 -185
-80 -9 0 -45 102 -57 160 -13 67 -7 242 12 310 66 239 241 428 469 505 39 14
76 25 83 25 7 0 1 -36 -18 -107z m412 78 c79 -27 160 -76 243 -145 l28 -24
-83 -32 c-81 -31 -189 -70 -195 -70 -2 0 -2 32 0 71 l3 71 -33 14 c-49 20 -99
22 -100 4 0 -8 -5 -58 -10 -110 -5 -52 -7 -107 -6 -121 3 -25 1 -26 -30 -20
-29 6 -33 11 -32 36 0 31 16 214 20 228 1 4 2 26 4 50 1 23 4 37 6 30 4 -8 22
-4 62 12 69 29 58 29 123 6z m403 -358 c21 -43 45 -108 52 -138 19 -82 23
-122 20 -210 -2 -56 -11 -125 -20 -156 l-17 -57 -204 207 c-112 113 -213 217
-223 232 l-20 25 131 37 c73 21 159 51 192 66 33 16 63 30 66 30 3 1 13 -16
23 -36z m-141 -678 c42 -31 77 -60 77 -65 0 -29 -172 -187 -225 -206 -11 -4
-27 -13 -35 -19 -19 -16 -161 -62 -215 -70 -52 -8 -169 -7 -220 1 -75 11 -185
52 -254 93 -67 39 -181 135 -181 151 0 6 112 39 223 65 10 2 27 7 37 10 10 3
27 8 38 10 12 2 65 16 119 30 54 15 126 30 160 35 79 10 146 42 198 95 l40 40
80 -57 c44 -32 115 -83 158 -113z"/>
<path d="M2265 1584 c-173 -104 -287 -299 -288 -494 -1 -88 6 -149 20 -187 8
-22 9 -22 110 24 94 42 101 47 93 67 -12 32 -5 146 13 202 9 27 32 110 52 184
20 74 44 157 52 183 8 27 13 50 11 53 -3 2 -31 -12 -63 -32z"/>
<path d="M2760 735 c-37 -21 -109 -43 -160 -48 -25 -3 -114 -23 -199 -46 -84
-23 -160 -41 -167 -41 -60 0 87 -84 197 -113 30 -7 81 -15 115 -16 56 -2 64 0
110 35 26 20 57 47 67 58 39 45 93 187 71 186 -5 -1 -20 -7 -34 -15z"/>
<path d="M49 2135 c-3 -52 -18 -996 -20 -1240 -1 -221 11 -267 98 -353 48 -48
54 -59 55 -96 0 -148 85 -283 216 -344 49 -23 70 -27 152 -27 82 0 103 4 152
27 114 53 199 165 213 282 l7 53 351 1 c194 0 360 1 370 1 15 1 14 6 -10 44
-84 133 -145 305 -160 450 -28 271 25 507 165 737 12 19 22 38 22 41 0 3 -156
6 -347 6 -192 0 -364 3 -383 6 -78 15 -91 125 -19 162 23 13 102 15 476 15
l448 0 30 26 c83 73 239 161 352 198 29 10 55 21 57 24 2 4 -497 7 -1110 7
-1107 0 -1114 0 -1115 -20z m691 -1722 c0 -29 -31 -92 -56 -114 -68 -60 -162
-68 -235 -20 -50 33 -76 72 -84 124 l-6 35 191 -1 190 0 0 -24z"/>
</g>
</svg>
